<svg version="1.0" xmlns="http://www.w3.org/2000/svg"
 width="2000.000000pt" height="1500.000000pt" viewBox="0 0 2000.000000 1500.000000"
 preserveAspectRatio="xMidYMid meet">

<g transform="translate(0.000000,1500.000000) scale(0.100000,-0.100000)"
fill="#000000" stroke="none">
<path d="M4600 10000 c-307 -43 -606 -171 -880 -378 -112 -85 -305 -282 -402
-412 -283 -378 -447 -787 -525 -1306 -22 -151 -25 -627 -5 -774 92 -656 340
-1182 747 -1585 282 -280 609 -456 983 -532 137 -28 501 -25 640 5 874 190
1532 983 1693 2042 21 135 24 191 24 440 0 249 -3 305 -24 440 -161 1057 -820
1854 -1688 2040 -111 24 -447 36 -563 20z m543 -89 c574 -116 1073 -530 1377
-1146 112 -226 173 -400 225 -640 50 -229 59 -332 59 -625 0 -293 -9 -396 -59
-625 -52 -240 -113 -413 -225 -640 -304 -616 -803 -1030 -1383 -1147 -148 -30
-461 -33 -602 -5 -588 116 -1087 521 -1396 1132 -213 423 -311 877 -296 1375
7 215 25 366 63 540 216 968 867 1663 1679 1795 133 21 417 14 558 -14z"/>
<path d="M4535 9770 c-171 -30 -298 -72 -450 -148 -552 -274 -974 -870 -1114
-1572 -41 -204 -46 -270 -46 -565 1 -312 11 -409 71 -652 200 -815 763 -1434
1448 -1593 204 -47 457 -51 658 -11 756 152 1369 860 1532 1771 42 234 54 602
27 815 -130 1043 -787 1831 -1631 1960 -131 20 -369 18 -495 -5z m425 -50
c378 -46 703 -212 992 -506 165 -167 273 -321 389 -549 183 -363 269 -736 269
-1172 0 -822 -361 -1565 -953 -1962 -173 -116 -412 -212 -612 -247 -131 -22
-367 -22 -492 0 -342 61 -637 220 -903 486 -352 352 -577 836 -651 1405 -22
165 -17 540 10 714 105 684 444 1254 937 1578 216 142 447 225 709 256 66 8
225 6 305 -3z"/>
<path d="M4613 8226 c-164 -38 -281 -149 -324 -308 -16 -60 -24 -844 -10 -951
24 -176 114 -285 287 -349 49 -18 81 -22 189 -22 113 0 138 3 190 24 148 58
235 150 270 287 14 53 15 128 13 525 -4 520 -3 514 -79 626 -46 70 -131 133
-213 158 -72 22 -246 27 -323 10z m302 -132 c69 -24 146 -103 171 -174 18 -51
19 -88 19 -505 0 -523 0 -521 -89 -610 -62 -63 -119 -85 -237 -92 -170 -11
-291 53 -353 187 -20 44 -21 59 -21 515 l0 470 26 55 c41 89 100 137 199 166
61 18 220 11 285 -12z"/>
<path d="M8305 8386 c-114 -19 -187 -42 -290 -91 -352 -168 -582 -518 -625
-955 -40 -391 127 -788 410 -980 186 -126 392 -179 650 -167 271 13 479 101
669 282 254 243 400 644 361 994 -44 396 -246 702 -559 843 -162 74 -427 106
-616 74z m357 -135 c37 -12 101 -44 142 -72 182 -121 308 -330 367 -609 31
-145 32 -373 2 -510 -70 -324 -240 -570 -468 -680 -108 -52 -170 -65 -305 -64
-91 0 -131 5 -190 23 -253 77 -436 318 -511 671 -29 138 -32 384 -5 505 87
399 322 682 624 750 92 20 255 14 344 -14z"/>
<path d="M15161 8128 c-29 -98 -93 -212 -155 -274 -69 -69 -121 -92 -228 -101
-65 -6 -68 -7 -68 -32 0 -14 -3 -43 -6 -63 l-7 -38 138 0 137 0 -6 -37 c-20
-135 -62 -652 -72 -883 -7 -190 1 -255 46 -347 51 -104 127 -145 267 -145 162
1 267 65 382 232 21 30 40 60 44 66 4 7 -10 22 -32 37 l-39 26 -38 -56 c-69
-100 -154 -153 -247 -153 -68 0 -98 25 -128 105 -26 72 -7 445 46 915 14 118
25 223 25 232 0 16 20 18 243 20 l242 3 3 58 3 57 -236 0 -235 0 0 23 c0 22
36 319 45 370 4 27 4 27 -54 27 l-58 0 -12 -42z"/>
<path d="M9939 7766 c-95 -34 -183 -121 -242 -239 -35 -72 -64 -163 -55 -173
3 -2 22 -5 42 -7 38 -2 38 -2 61 61 32 88 73 151 123 189 50 38 89 42 123 14
42 -33 38 -141 -25 -694 -31 -269 -56 -531 -56 -583 l0 -94 124 0 124 0 1 148
c0 281 65 553 200 837 74 155 119 224 198 307 138 142 284 143 323 1 18 -63 7
-303 -25 -528 -67 -477 -70 -590 -19 -692 24 -47 37 -62 75 -81 58 -29 163
-32 236 -8 96 32 198 149 254 290 39 99 38 111 -11 124 l-40 10 -11 -42 c-16
-58 -66 -156 -97 -190 -42 -44 -102 -68 -141 -55 -62 22 -65 111 -16 459 47
330 63 545 47 653 -30 209 -155 320 -345 304 -209 -18 -389 -217 -533 -589
-20 -54 -39 -96 -42 -94 -2 3 4 49 14 103 13 69 19 144 19 253 0 142 -2 159
-24 208 -27 61 -66 97 -119 112 -50 13 -119 12 -163 -4z"/>
<path d="M11768 7765 c-97 -31 -204 -160 -253 -306 -30 -86 -31 -106 -7 -113
9 -2 27 -7 38 -11 20 -5 24 1 43 62 40 129 106 215 179 229 24 5 36 1 56 -19
40 -40 42 -93 11 -407 -35 -369 -43 -630 -21 -723 44 -188 143 -269 329 -268
160 0 286 61 438 211 232 230 351 512 351 830 -1 323 -123 513 -340 527 -57 4
-74 1 -111 -19 -53 -28 -81 -76 -81 -137 0 -37 5 -49 34 -76 19 -18 48 -35 64
-38 44 -9 97 10 125 43 l25 29 33 -22 c123 -83 146 -420 47 -694 -71 -196
-266 -413 -425 -473 -63 -24 -142 -26 -182 -5 -73 37 -80 119 -46 550 32 396
37 620 16 680 -37 106 -102 156 -210 161 -41 2 -84 -2 -113 -11z"/>
<path d="M13798 7770 c-244 -44 -440 -215 -542 -472 -54 -138 -70 -229 -70
-408 -1 -190 12 -255 75 -386 95 -201 253 -294 494 -295 201 0 338 54 470 185
152 152 236 343 266 602 51 450 -171 767 -546 780 -55 1 -121 -1 -147 -6z
m171 -116 c105 -31 190 -141 233 -303 30 -112 36 -354 13 -492 -33 -202 -99
-353 -193 -445 -72 -72 -140 -97 -242 -92 -87 5 -123 22 -179 79 -82 86 -132
229 -152 432 -34 368 82 699 281 802 72 37 156 44 239 19z"/>
<path d="M16475 7773 c-175 -23 -360 -147 -460 -307 -179 -288 -216 -716 -83
-986 93 -189 234 -270 473 -271 263 0 426 100 599 368 25 39 46 76 46 81 0 5
-21 20 -47 34 l-48 26 -35 -61 c-53 -94 -170 -206 -260 -250 -162 -80 -329
-64 -420 39 -73 84 -124 262 -118 411 l3 67 90 13 c131 19 325 69 439 114 168
67 276 152 327 258 32 66 32 195 0 268 -27 61 -93 126 -157 154 -90 40 -234
57 -349 42z m137 -103 c111 -31 171 -165 133 -295 -32 -113 -182 -226 -380
-288 -95 -30 -235 -60 -243 -52 -10 10 30 220 59 311 27 86 81 182 127 231 83
85 201 121 304 93z"/>
</g>
</svg>
